<svg width="340" height="340" viewBox="0 0 340 340" fill="none" xmlns="http://www.w3.org/2000/svg">
<g clip-path="url(#clip0)">
<circle cx="170" cy="169" r="170" fill="#EBEBEB"/>
<path d="M119.788 265.731L69.1301 293.335C66.1574 294.954 63.4858 296.945 61 299.114C90.5348 323.992 128.661 339 170.317 339C211.666 339 249.548 324.216 279 299.678C276.284 297.386 273.336 295.325 270.069 293.7L215.824 266.608C208.815 263.107 204.388 255.952 204.388 248.124V226.863C205.913 225.129 207.655 222.901 209.52 220.271C216.913 209.839 222.506 198.363 226.382 186.325C233.34 184.181 238.465 177.761 238.465 170.132V147.437C238.465 142.445 236.242 137.984 232.789 134.861V102.054C232.789 102.054 239.535 51 170.324 51C101.112 51 107.858 102.054 107.858 102.054V134.861C104.399 137.984 102.182 142.445 102.182 147.437V170.132C102.182 176.11 105.328 181.371 110.037 184.411C115.713 209.096 130.577 226.863 130.577 226.863V247.6C130.57 255.152 126.431 262.109 119.788 265.731Z" fill="black"/>
</g>
<defs>
<clipPath id="clip0">
<rect width="340" height="340" fill="white"/>
</clipPath>
</defs>
</svg>
