<svg width="415" height="548" viewBox="0 0 415 548" fill="none" xmlns="http://www.w3.org/2000/svg">
<path d="M111.912 408.586L15.477 461.11C9.81794 464.191 4.73212 467.978 0 472.106C56.2245 519.442 128.804 548 208.104 548C286.818 548 358.934 519.869 415 473.178C409.829 468.818 404.219 464.897 397.998 461.804L294.733 410.254C281.391 403.593 272.963 389.978 272.963 375.084V334.628C275.866 331.328 279.183 327.09 282.732 322.085C296.807 302.235 307.454 280.4 314.833 257.493C328.078 253.413 337.835 241.198 337.835 226.682V183.499C337.835 174 333.603 165.512 327.029 159.569V97.1443C327.029 97.1443 339.871 0 208.116 0C76.3604 0 89.203 97.1443 89.203 97.1443V159.569C82.617 165.512 78.3971 174 78.3971 183.499V226.682C78.3971 238.056 84.3855 248.067 93.3497 253.851C104.156 300.822 132.451 334.628 132.451 334.628V374.085C132.439 388.455 124.56 401.693 111.912 408.586Z" fill="black"/>
</svg>
